<?xml version="1.0" encoding="UTF-8"?>
<svg id="Layer_2" data-name="Layer 2" xmlns="http://www.w3.org/2000/svg" viewBox="0 0 480.03 480.04">
  <defs>
    <style>
      .cls-1 {
        fill: #a5a4bc;
      }
    </style>
  </defs>
  <g id="Layer_1-2" data-name="Layer 1">
    <path class="cls-1" d="m241.52,11.62c-.8-5.4-4.9-9.8-10.3-10.6-22.1-3.1-44.6.9-64.4,11.4l-74,39.5c-19.7,10.5-35.6,27-45.4,47.1L10.72,174.62C.92,194.72-2.28,217.52,1.62,239.52l14.5,82.8c3.9,22.1,14.6,42.3,30.7,57.9l60.3,58.4c16.1,15.6,36.6,25.6,58.7,28.7l83,11.7c22.1,3.1,44.6-.9,64.4-11.4l74-39.5c19.7-10.5,35.6-27,45.4-47.2l36.7-75.5c9.8-20.1,13-42.9,9.1-64.9-.9-5.3-5.3-9.3-10.6-10.1-51.5-8.2-92.8-47.1-104.5-97.4-1.8-7.6-8-13.4-15.7-14.6-54.6-8.7-97.7-52-106.2-106.8h.1Zm-49.5,116.4c17.67,0,32,14.33,32,32s-14.33,32-32,32-32-14.33-32-32,14.33-32,32-32Zm-64,192c0-17.67,14.33-32,32-32s32,14.33,32,32-14.33,32-32,32-32-14.33-32-32Zm224-64c17.67,0,32,14.33,32,32s-14.33,32-32,32-32-14.33-32-32,14.33-32,32-32Z"/>
  </g>
</svg>